<svg xmlns="http://www.w3.org/2000/svg" xmlns:xlink="http://www.w3.org/1999/xlink" viewBox="0 0 300 300" width="300" height="300" preserveAspectRatio="xMidYMid meet" style="width: 100%; height: 100%; transform: translate3d(0px, 0px, 0px); content-visibility: visible;"><defs><clipPath id="__lottie_element_2"><rect width="300" height="300" x="0" y="0"/></clipPath><g id="__lottie_element_12"><g transform="matrix(1,0,0,1,150,150)" opacity="1" style="display: block;"><g opacity="1" transform="matrix(1,0,0,1,23.75,-14.5)"><path fill="rgb(251,179,91)" fill-opacity="1" d=" M10.75,-14 C10.75,-14 10.75,14 10.75,14 C10.75,14 -10.75,14 -10.75,14 C-10.75,14 -10.75,-14 -10.75,-14 C-10.75,-14 10.75,-14 10.75,-14z"/></g></g></g><mask id="__lottie_element_12_1" mask-type="alpha"><use xmlns:ns1="http://www.w3.org/1999/xlink" ns1:href="#__lottie_element_12"/></mask></defs><g clip-path="url(#__lottie_element_2)"><g transform="matrix(1.0179181098937988,0,0,0.9820818305015564,90.02306365966797,109.04470825195312)" opacity="1" style="display: block;"><g opacity="1" transform="matrix(1,0,0,1,46.90599822998047,49.34600067138672)"><path stroke-linecap="round" stroke-linejoin="round" fill-opacity="0" stroke="rgb(0,0,0)" stroke-opacity="1" stroke-width="2.827" d=" M36.49800109863281,32.676998138427734 C36.49800109863281,32.676998138427734 -36.49800109863281,32.676998138427734 -36.49800109863281,32.676998138427734 C-38.34299850463867,32.676998138427734 -39.8390007019043,31.180999755859375 -39.8390007019043,29.336000442504883 C-39.8390007019043,29.336000442504883 -39.8390007019043,-29.334999084472656 -39.8390007019043,-29.334999084472656 C-39.8390007019043,-31.180999755859375 -38.34299850463867,-32.676998138427734 -36.49800109863281,-32.676998138427734 C-36.49800109863281,-32.676998138427734 -10.277000427246094,-32.676998138427734 -10.277000427246094,-32.676998138427734 C-8.958999633789062,-32.676998138427734 -7.690999984741211,-32.16999816894531 -6.735000133514404,-31.26099967956543 C-6.735000133514404,-31.26099967956543 -0.0989999994635582,-24.95199966430664 -0.0989999994635582,-24.95199966430664 C0.8560000061988831,-24.042999267578125 2.124000072479248,-23.535999298095703 3.443000078201294,-23.535999298095703 C3.443000078201294,-23.535999298095703 36.49800109863281,-23.535999298095703 36.49800109863281,-23.535999298095703 C38.34299850463867,-23.535999298095703 39.8390007019043,-22.040000915527344 39.8390007019043,-20.19499969482422 C39.8390007019043,-20.19499969482422 39.8390007019043,29.336000442504883 39.8390007019043,29.336000442504883 C39.8390007019043,31.180999755859375 38.34299850463867,32.676998138427734 36.49800109863281,32.676998138427734z"/></g><g opacity="1" transform="matrix(1,0,0,1,52.56800079345703,58.347999572753906)"><path fill="rgb(255,255,255)" fill-opacity="1" d=" M31.54199981689453,23.674999237060547 C31.54199981689453,23.674999237060547 -41.26599884033203,23.674999237060547 -41.26599884033203,23.674999237060547 C-43.42599868774414,23.674999237060547 -45.018001556396484,21.656999588012695 -44.51599884033203,19.55699920654297 C-44.51599884033203,19.55699920654297 -34.79199981689453,-21.110000610351562 -34.79199981689453,-21.110000610351562 C-34.43299865722656,-22.61400032043457 -33.0880012512207,-23.674999237060547 -31.54199981689453,-23.674999237060547 C-31.54199981689453,-23.674999237060547 41.26599884033203,-23.674999237060547 41.26599884033203,-23.674999237060547 C43.42499923706055,-23.674999237060547 45.016998291015625,-21.656999588012695 44.513999938964844,-19.555999755859375 C44.513999938964844,-19.555999755859375 34.79199981689453,21.111000061035156 34.79199981689453,21.111000061035156 C34.43199920654297,22.61400032043457 33.0880012512207,23.674999237060547 31.54199981689453,23.674999237060547z"/><path stroke-linecap="round" stroke-linejoin="round" fill-opacity="0" stroke="rgb(0,0,0)" stroke-opacity="1" stroke-width="2.827" d=" M31.54199981689453,23.674999237060547 C31.54199981689453,23.674999237060547 -41.26599884033203,23.674999237060547 -41.26599884033203,23.674999237060547 C-43.42599868774414,23.674999237060547 -45.018001556396484,21.656999588012695 -44.51599884033203,19.55699920654297 C-44.51599884033203,19.55699920654297 -34.79199981689453,-21.110000610351562 -34.79199981689453,-21.110000610351562 C-34.43299865722656,-22.61400032043457 -33.0880012512207,-23.674999237060547 -31.54199981689453,-23.674999237060547 C-31.54199981689453,-23.674999237060547 41.26599884033203,-23.674999237060547 41.26599884033203,-23.674999237060547 C43.42499923706055,-23.674999237060547 45.016998291015625,-21.656999588012695 44.513999938964844,-19.555999755859375 C44.513999938964844,-19.555999755859375 34.79199981689453,21.111000061035156 34.79199981689453,21.111000061035156 C34.43199920654297,22.61400032043457 33.0880012512207,23.674999237060547 31.54199981689453,23.674999237060547z"/></g><g opacity="1" transform="matrix(1,0,0,1,0,0)"><path stroke-linecap="round" stroke-linejoin="round" fill-opacity="0" stroke="rgb(0,0,0)" stroke-opacity="1" stroke-width="2.827" d=" M25.968000411987305,62.90999984741211 C25.968000411987305,62.90999984741211 63.79399871826172,62.90999984741211 63.79399871826172,62.90999984741211"/></g><g opacity="1" transform="matrix(1,0,0,1,0,0)"><path stroke-linecap="round" stroke-linejoin="round" fill-opacity="0" stroke="rgb(0,0,0)" stroke-opacity="1" stroke-width="2.827" d=" M22.55699920654297,73.16600036621094 C22.55699920654297,73.16600036621094 74.21900177001953,73.16600036621094 74.21900177001953,73.16600036621094"/></g></g><g transform="matrix(0.9552046060562134,0,0,0.9552046060562134,94.6851577758789,108.94662475585938)" opacity="1" style="display: block;"><g opacity="1" transform="matrix(1,0,0,1,0,0)"><g opacity="1" transform="matrix(1,0,0,1,83.2040023803711,30.642000198364258)"><path fill="rgb(255,255,255)" fill-opacity="1" d=" M0,-27.815000534057617 C-15.336000442504883,-27.815000534057617 -27.81399917602539,-15.336999893188477 -27.81399917602539,0.0010000000474974513 C-27.81399917602539,15.336999893188477 -15.336000442504883,27.815000534057617 0,27.815000534057617 C15.336000442504883,27.815000534057617 27.81399917602539,15.336999893188477 27.81399917602539,0.0010000000474974513 C27.81399917602539,-15.336999893188477 15.336000442504883,-27.815000534057617 0,-27.815000534057617z"/></g><g opacity="1" transform="matrix(1,0,0,1,83.20500183105469,30.642000198364258)"><path fill="rgb(255,255,255)" fill-opacity="1" d=" M23.573999404907227,0 C23.573999404907227,13.020000457763672 13.020000457763672,23.573999404907227 0,23.573999404907227 C-13.020000457763672,23.573999404907227 -23.573999404907227,13.020000457763672 -23.573999404907227,0 C-23.573999404907227,-13.020000457763672 -13.020000457763672,-23.573999404907227 0,-23.573999404907227 C13.020000457763672,-23.573999404907227 23.573999404907227,-13.020000457763672 23.573999404907227,0z"/><path stroke-linecap="round" stroke-linejoin="round" fill-opacity="0" stroke="rgb(0,0,0)" stroke-opacity="1" stroke-width="2.827" d=" M23.573999404907227,0 C23.573999404907227,13.020000457763672 13.020000457763672,23.573999404907227 0,23.573999404907227 C-13.020000457763672,23.573999404907227 -23.573999404907227,13.020000457763672 -23.573999404907227,0 C-23.573999404907227,-13.020000457763672 -13.020000457763672,-23.573999404907227 0,-23.573999404907227 C13.020000457763672,-23.573999404907227 23.573999404907227,-13.020000457763672 23.573999404907227,0z"/></g><g opacity="1" transform="matrix(1,0,0,1,83.20500183105469,40.4109992980957)"><path fill="rgb(255,255,255)" fill-opacity="1" d=" M-9.303000450134277,-1.4609999656677246 C-9.303000450134277,-1.4609999656677246 -9.303000450134277,1.4609999656677246 -9.303000450134277,1.4609999656677246 C-9.303000450134277,1.4609999656677246 9.303000450134277,1.4609999656677246 9.303000450134277,1.4609999656677246 C9.303000450134277,1.4609999656677246 9.303000450134277,-1.4609999656677246 9.303000450134277,-1.4609999656677246"/><path stroke-linecap="round" stroke-linejoin="round" fill-opacity="0" stroke="rgb(0,0,0)" stroke-opacity="1" stroke-width="2.827" d=" M-9.303000450134277,-1.4609999656677246 C-9.303000450134277,-1.4609999656677246 -9.303000450134277,1.4609999656677246 -9.303000450134277,1.4609999656677246 C-9.303000450134277,1.4609999656677246 9.303000450134277,1.4609999656677246 9.303000450134277,1.4609999656677246 C9.303000450134277,1.4609999656677246 9.303000450134277,-1.4609999656677246 9.303000450134277,-1.4609999656677246"/></g></g></g><g mask="url(#__lottie_element_12_1)" style="display: block;"><g transform="matrix(0.9552046060562134,0,0,0.9552046060562134,94.6851577758789,114.91238403320312)" opacity="1"><g opacity="1" transform="matrix(1,0,0,1,0,-60)"><g opacity="1" transform="matrix(1,0,0,1,0,0)"><g opacity="1" transform="matrix(1,0,0,1,0,0)"><g opacity="1" transform="matrix(1,0,0,1,0,0)"><path fill="rgb(255,255,255)" fill-opacity="1" d=" M83.20500183105469,19.410999298095703 C83.20500183105469,19.410999298095703 83.20500183105469,34.67399978637695 83.20500183105469,34.67399978637695"/><path stroke-linecap="round" stroke-linejoin="round" fill-opacity="0" stroke="rgb(0,0,0)" stroke-opacity="1" stroke-width="2.827" d=" M83.20500183105469,19.410999298095703 C83.20500183105469,19.410999298095703 83.20500183105469,34.67399978637695 83.20500183105469,34.67399978637695"/></g><g opacity="1" transform="matrix(1,0,0,1,83.20500183105469,31.770000457763672)"><path stroke-linecap="round" stroke-linejoin="round" fill-opacity="0" stroke="rgb(0,0,0)" stroke-opacity="1" stroke-width="2.827" d=" M-5.718999862670898,-2.9040000438690186 C-5.718999862670898,-2.9040000438690186 0.08900000154972076,2.9040000438690186 0.08900000154972076,2.9040000438690186 C0.08900000154972076,2.9040000438690186 5.718999862670898,-2.7269999980926514 5.718999862670898,-2.7269999980926514"/></g></g></g></g><g opacity="1" transform="matrix(1,0,0,1,0,-30)"><g opacity="1" transform="matrix(1,0,0,1,0,0)"><g opacity="1" transform="matrix(1,0,0,1,0,0)"><g opacity="1" transform="matrix(1,0,0,1,0,0)"><path fill="rgb(255,255,255)" fill-opacity="1" d=" M83.20500183105469,19.410999298095703 C83.20500183105469,19.410999298095703 83.20500183105469,34.67399978637695 83.20500183105469,34.67399978637695"/><path stroke-linecap="round" stroke-linejoin="round" fill-opacity="0" stroke="rgb(0,0,0)" stroke-opacity="1" stroke-width="2.827" d=" M83.20500183105469,19.410999298095703 C83.20500183105469,19.410999298095703 83.20500183105469,34.67399978637695 83.20500183105469,34.67399978637695"/></g><g opacity="1" transform="matrix(1,0,0,1,83.20500183105469,31.770000457763672)"><path stroke-linecap="round" stroke-linejoin="round" fill-opacity="0" stroke="rgb(0,0,0)" stroke-opacity="1" stroke-width="2.827" d=" M-5.718999862670898,-2.9040000438690186 C-5.718999862670898,-2.9040000438690186 0.08900000154972076,2.9040000438690186 0.08900000154972076,2.9040000438690186 C0.08900000154972076,2.9040000438690186 5.718999862670898,-2.7269999980926514 5.718999862670898,-2.7269999980926514"/></g></g></g></g><g opacity="1" transform="matrix(1,0,0,1,0,0)"><g opacity="1" transform="matrix(1,0,0,1,0,0)"><g opacity="1" transform="matrix(1,0,0,1,0,0)"><g opacity="1" transform="matrix(1,0,0,1,0,0)"><path fill="rgb(255,255,255)" fill-opacity="1" d=" M83.20500183105469,19.410999298095703 C83.20500183105469,19.410999298095703 83.20500183105469,34.67399978637695 83.20500183105469,34.67399978637695"/><path stroke-linecap="round" stroke-linejoin="round" fill-opacity="0" stroke="rgb(0,0,0)" stroke-opacity="1" stroke-width="2.827" d=" M83.20500183105469,19.410999298095703 C83.20500183105469,19.410999298095703 83.20500183105469,34.67399978637695 83.20500183105469,34.67399978637695"/></g><g opacity="1" transform="matrix(1,0,0,1,83.20500183105469,31.770000457763672)"><path stroke-linecap="round" stroke-linejoin="round" fill-opacity="0" stroke="rgb(0,0,0)" stroke-opacity="1" stroke-width="2.827" d=" M-5.718999862670898,-2.9040000438690186 C-5.718999862670898,-2.9040000438690186 0.08900000154972076,2.9040000438690186 0.08900000154972076,2.9040000438690186 C0.08900000154972076,2.9040000438690186 5.718999862670898,-2.7269999980926514 5.718999862670898,-2.7269999980926514"/></g></g></g></g></g></g></g></svg>